<!-- icon666.com - MILLIONS vector ICONS FREE --><svg viewBox="0 0 24 24" xmlns="http://www.w3.org/2000/svg"><g id="_01" data-name="01"><path d="m1.25 9a7.759 7.759 0 0 1 7.75-7.75.752.752 0 0 1 .644 1.136l-1.05 1.75a.75.75 0 1 1 -1.287-.772l.27-.451a6.262 6.262 0 0 0 -4.827 6.087.75.75 0 0 1 -1.5 0zm21.5-3.85v3.7c0 2.66-1.24 3.9-3.9 3.9h-2.7c-2.66 0-3.9-1.24-3.9-3.9v-3.7c0-2.66 1.24-3.9 3.9-3.9h2.7c2.66 0 3.9 1.24 3.9 3.9zm-1.5 0c0-1.84-.56-2.4-2.4-2.4h-2.7c-1.84 0-2.4.56-2.4 2.4v3.7c0 1.84.56 2.4 2.4 2.4h2.7c1.84 0 2.4-.56 2.4-2.4zm.75 9.1a.75.75 0 0 0 -.75.75 6.262 6.262 0 0 1 -4.827 6.087l.27-.451a.75.75 0 1 0 -1.287-.772l-1.05 1.75a.752.752 0 0 0 .644 1.136 7.759 7.759 0 0 0 7.75-7.75.75.75 0 0 0 -.75-.75zm-14.15-3h-2.7c-2.661 0-3.9 1.239-3.9 3.9v3.7c0 2.661 1.239 3.9 3.9 3.9h2.7c2.661 0 3.9-1.239 3.9-3.9v-3.7c0-2.661-1.239-3.9-3.9-3.9z" fill="#0d6efd"/><path d="m9.65 1.63a.752.752 0 0 0 -.65-.38 7.763 7.763 0 0 0 -7.75 7.75.75.75 0 0 0 1.5 0 6.261 6.261 0 0 1 4.83-6.09l-.27.45a.749.749 0 0 0 1.28.78l1.05-1.75a.74.74 0 0 0 .01-.76zm12.35 12.62a.755.755 0 0 0 -.75.75 6.261 6.261 0 0 1 -4.83 6.09l.27-.45a.749.749 0 0 0 -1.28-.78l-1.05 1.75a.74.74 0 0 0 -.01.76.752.752 0 0 0 .65.38 7.763 7.763 0 0 0 7.75-7.75.755.755 0 0 0 -.75-.75zm-14.15-3h-2.7c-2.66 0-3.9 1.24-3.9 3.9v3.7c0 2.66 1.24 3.9 3.9 3.9h2.7c2.66 0 3.9-1.24 3.9-3.9v-3.7c0-2.66-1.24-3.9-3.9-3.9zm2.4 7.6c0 1.84-.56 2.4-2.4 2.4h-2.7c-1.84 0-2.4-.56-2.4-2.4v-3.7c0-1.84.56-2.4 2.4-2.4h2.7c1.84 0 2.4.56 2.4 2.4zm8.6-17.6h-2.7c-2.66 0-3.9 1.24-3.9 3.9v3.7c0 2.66 1.24 3.9 3.9 3.9h2.7c2.66 0 3.9-1.24 3.9-3.9v-3.7c0-2.66-1.24-3.9-3.9-3.9zm2.4 7.6c0 1.84-.56 2.4-2.4 2.4h-2.7c-1.84 0-2.4-.56-2.4-2.4v-3.7c0-1.84.56-2.4 2.4-2.4h2.7c1.84 0 2.4.56 2.4 2.4z" fill="#0d6efd"/></g></svg>